# xmcd
#
# Track frame offsets:
#	182
#	8385
#	21980
#	38092
#	50732
#	63730
#	82850
#	97975
#	114022
#	130465
#	143722
#	159417
#	174827
#	192600
#	207527
#	222382
#	257455
#	260850
#	273500
#	288175
#
# Disc length: 4026 seconds
# Revision: 28
# Processed by: cddbd v1.5.2PL0 Copyright (c) Steve Scherf et al.
# Submitted via: dBpowerAMP V12.0
#
DISCID=1b0fb914,1f0fb814
DTITLE=The Blues Brothers - The Definitive Collection
DYEAR=1992
DGENRE=R&B
TTITLE0=Opening: I Can't Turn You Loose
TTITLE1=Hey Bartender
TTITLE2=Messin' With The Kid
TTITLE3=(I Got Everything I Need) Almost
TTITLE4=Rubber Biscuit
TTITLE5=I Don't Know
TTITLE6=Soul Man
TTITLE7=Who's Making Love?
TTITLE8=Do You Love Me/Mother Popcorn (You Got To Have A Mother For Me)
TTITLE9=Guilty
TTITLE10=Riot In Cell Block #9
TTITLE11=From The Bottom
TTITLE12=Going Back To Miami
TTITLE13=Everybody Needs Somebody To Love
TTITLE14=Expressway To Your Heart
TTITLE15=Sweet Home Chicago
TTITLE16=Closing: I Can't Turn You Loose
TTITLE17=Shake YourTailfeather
TTITLE18=Think [feat. Aretha Franklin]
TTITLE19=Gimme Some Lovin'
EXTD=
EXTT0=
EXTT1=
EXTT2=
EXTT3=
EXTT4=
EXTT5=
EXTT6=
EXTT7=
EXTT8=
EXTT9=
EXTT10=
EXTT11=
EXTT12=
EXTT13=
EXTT14=
EXTT15=
EXTT16=
EXTT17=
EXTT18=
EXTT19=
PLAYORDER=
